<svg xmlns="http://www.w3.org/2000/svg" width="24" height="24" viewBox="0 0 24 24"><g transform="translate(-236 -78)"><path d="M0,0H24V24H0Z" transform="translate(236 78)" fill="none"/><path d="M13,3.87v.02a1.509,1.509,0,0,0,1.08,1.43A7,7,0,0,1,19,12a6.606,6.606,0,0,1-.17,1.49,1.514,1.514,0,0,0,.69,1.64l.01.01a1.5,1.5,0,0,0,2.21-.91A9.717,9.717,0,0,0,22,12a10.013,10.013,0,0,0-7.08-9.57A1.5,1.5,0,0,0,13,3.87ZM10.94,18.92A7,7,0,0,1,9.91,5.32,1.5,1.5,0,0,0,11,3.89V3.87A1.5,1.5,0,0,0,9.07,2.43a10,10,0,1,0,9.66,16.94,1.493,1.493,0,0,0-.26-2.39,1.53,1.53,0,0,0-1.8.22,6.908,6.908,0,0,1-5.73,1.72Z" transform="translate(236 78)" fill="#46153b"/></g></svg>