<svg xmlns="http://www.w3.org/2000/svg" width="24" height="24" viewBox="0 0 24 24"><g transform="translate(-606 -78)"><path d="M0,0H24V24H0Z" transform="translate(606 78)" fill="none" opacity="0.87"/><path d="M4,14H6a1,1,0,0,0,1-1V11a1,1,0,0,0-1-1H4a1,1,0,0,0-1,1v2A1,1,0,0,0,4,14Zm0,5H6a1,1,0,0,0,1-1V16a1,1,0,0,0-1-1H4a1,1,0,0,0-1,1v2A1,1,0,0,0,4,19ZM4,9H6A1,1,0,0,0,7,8V6A1,1,0,0,0,6,5H4A1,1,0,0,0,3,6V8A1,1,0,0,0,4,9Zm5,5H19a1,1,0,0,0,1-1V11a1,1,0,0,0-1-1H9a1,1,0,0,0-1,1v2A1,1,0,0,0,9,14Zm0,5H19a1,1,0,0,0,1-1V16a1,1,0,0,0-1-1H9a1,1,0,0,0-1,1v2A1,1,0,0,0,9,19ZM8,6V8A1,1,0,0,0,9,9H19a1,1,0,0,0,1-1V6a1,1,0,0,0-1-1H9A1,1,0,0,0,8,6Z" transform="translate(606 78)" fill="#fff"/></g></svg>